<svg t="1676705513354" class="icon" viewBox="0 0 1024 1024" version="1.1" xmlns="http://www.w3.org/2000/svg" p-id="5581" data-spm-anchor-id="a313x.7781069.0.i2" width="64" height="64"><path d="M935.253333 282.453333a42.666667 42.666667 0 0 0-23.04-23.04A42.666667 42.666667 0 0 0 896 256h-213.333333a42.666667 42.666667 0 0 0 0 85.333333h110.506666L554.666667 579.84l-140.373334-140.8a42.666667 42.666667 0 0 0-60.586666 0l-256 256a42.666667 42.666667 0 0 0 0 60.586667 42.666667 42.666667 0 0 0 60.586666 0L384 529.493333l140.373333 140.8a42.666667 42.666667 0 0 0 60.586667 0L853.333333 401.493333V512a42.666667 42.666667 0 0 0 85.333334 0V298.666667a42.666667 42.666667 0 0 0-3.413334-16.213334z" p-id="5582" fill="#ff7a45"></path></svg>